<svg width="26" height="28" xmlns="http://www.w3.org/2000/svg" xmlns:xlink="http://www.w3.org/1999/xlink" xml:space="preserve" overflow="hidden"><g transform="translate(-632 -104)"><g><g><g><g><path d="M10.7328 19.9212C10.6886 19.9212 10.6522 19.8848 10.6522 19.8406L10.6522 17.264C10.6522 17.2198 10.6886 17.1834 10.7328 17.1834L10.9746 17.1834C10.9902 16.8532 11.024 16.5282 11.0812 16.2084L10.7328 16.2084C10.1504 16.2084 9.6772 16.6816 9.6772 17.2614L9.6772 19.838C9.6772 20.4204 10.1504 20.8936 10.7328 20.8936L11.7546 20.8936C11.596 20.5816 11.4608 20.2566 11.3464 19.9186L10.7328 19.9186Z" fill="#29B4E7" fill-rule="nonzero" fill-opacity="1" transform="matrix(1 0 0 1.03846 632 105)"/><path d="M7.6908 16.211 5.1142 16.211C4.5318 16.211 4.0586 16.6842 4.0586 17.264L4.0586 19.8406C4.0586 20.423 4.5318 20.8962 5.1142 20.8962L7.6908 20.8962C8.2732 20.8962 8.7464 20.423 8.7464 19.8406L8.7464 17.264C8.7464 16.6842 8.2732 16.211 7.6908 16.211ZM7.7714 19.8406C7.7714 19.8848 7.735 19.9212 7.6908 19.9212L5.1142 19.9212C5.07 19.9212 5.0336 19.8848 5.0336 19.8406L5.0336 17.264C5.0336 17.2198 5.07 17.1834 5.1142 17.1834L7.6908 17.1834C7.735 17.1834 7.7714 17.2198 7.7714 17.264L7.7714 19.8406Z" fill="#29B4E7" fill-rule="nonzero" fill-opacity="1" transform="matrix(1 0 0 1.03846 632 105)"/><path d="M13.3068 4.9634 10.7302 4.9634C10.1478 4.9634 9.6746 5.4366 9.6746 6.019L9.6746 8.5956C9.6746 9.178 10.1478 9.6512 10.7302 9.6512L13.3068 9.6512C13.8892 9.6512 14.3624 9.178 14.3624 8.5956L14.3624 6.019C14.3624 5.4366 13.8892 4.9634 13.3068 4.9634ZM13.3874 8.593C13.3874 8.6372 13.351 8.6736 13.3068 8.6736L10.7302 8.6736C10.686 8.6736 10.6496 8.6372 10.6496 8.593L10.6496 6.0164C10.6496 5.9722 10.686 5.9358 10.7302 5.9358L13.3068 5.9358C13.351 5.9358 13.3874 5.9722 13.3874 6.0164L13.3874 8.593Z" fill="#29B4E7" fill-rule="nonzero" fill-opacity="1" transform="matrix(1 0 0 1.03846 632 105)"/><path d="M10.7328 14.2558C10.6886 14.2558 10.6522 14.2194 10.6522 14.1752L10.6522 11.5986C10.6522 11.5544 10.6886 11.518 10.7328 11.518L13.3094 11.518C13.3536 11.518 13.39 11.5544 13.39 11.5986L13.39 12.038C13.6812 11.7728 13.988 11.5258 14.3182 11.3074 14.1908 10.868 13.7904 10.543 13.3094 10.543L10.7328 10.543C10.1504 10.543 9.6772 11.0162 9.6772 11.596L9.6772 14.1726C9.6772 14.7524 10.1504 15.2256 10.7328 15.2256L11.3256 15.2256C11.4348 14.8902 11.5726 14.5652 11.726 14.2506L10.7328 14.2506Z" fill="#29B4E7" fill-rule="nonzero" fill-opacity="1" transform="matrix(1 0 0 1.03846 632 105)"/><path d="M12.9272 22.594 3.5672 22.594C2.8548 22.594 2.275 22.0142 2.275 21.3018L2.275 4.6956C2.275 3.9832 2.8548 3.4034 3.5672 3.4034L20.176 3.4034C20.8884 3.4034 21.4682 3.9832 21.4682 4.6956L21.4682 10.725C21.9908 10.959 22.477 11.2502 22.9294 11.5908L22.9294 4.6956C22.9294 3.1772 21.6944 1.9422 20.1786 1.9422L3.5672 1.9422C2.0488 1.9422 0.8164 3.1772 0.8164 4.6956L0.8164 21.3018C0.8164 22.8202 2.0514 24.0526 3.5672 24.0526L14.7628 24.0526C14.0738 23.6678 13.4576 23.1712 12.9272 22.594Z" fill="#29B4E7" fill-rule="nonzero" fill-opacity="1" transform="matrix(1 0 0 1.03846 632 105)"/><path d="M18.9254 4.9634 16.3488 4.9634C15.7664 4.9634 15.2932 5.4366 15.2932 6.019L15.2932 8.5956C15.2932 9.178 15.7664 9.6512 16.3488 9.6512L18.9254 9.6512C19.5078 9.6512 19.981 9.178 19.981 8.5956L19.981 6.019C19.9784 5.4366 19.5052 4.9634 18.9254 4.9634ZM19.006 8.593C19.006 8.6372 18.9696 8.6736 18.9254 8.6736L16.3488 8.6736C16.3046 8.6736 16.2682 8.6372 16.2682 8.593L16.2682 6.0164C16.2682 5.9722 16.3046 5.9358 16.3488 5.9358L18.9254 5.9358C18.9696 5.9358 19.006 5.9722 19.006 6.0164L19.006 8.593Z" fill="#29B4E7" fill-rule="nonzero" fill-opacity="1" transform="matrix(1 0 0 1.03846 632 105)"/><path d="M7.6908 4.9634 5.1142 4.9634C4.5318 4.9634 4.0586 5.4366 4.0586 6.019L4.0586 8.5956C4.0586 9.178 4.5318 9.6512 5.1142 9.6512L7.6908 9.6512C8.2732 9.6512 8.7464 9.178 8.7464 8.5956L8.7464 6.019C8.7464 5.4366 8.2732 4.9634 7.6908 4.9634ZM7.7714 8.593C7.7714 8.6372 7.735 8.6736 7.6908 8.6736L5.1142 8.6736C5.07 8.6736 5.0336 8.6372 5.0336 8.593L5.0336 6.0164C5.0336 5.9722 5.07 5.9358 5.1142 5.9358L7.6908 5.9358C7.735 5.9358 7.7714 5.9722 7.7714 6.0164L7.7714 8.593Z" fill="#29B4E7" fill-rule="nonzero" fill-opacity="1" transform="matrix(1 0 0 1.03846 632 105)"/><path d="M7.6908 10.5456 5.1142 10.5456C4.5318 10.5456 4.0586 11.0188 4.0586 11.5986L4.0586 14.1752C4.0586 14.755 4.5318 15.2282 5.1142 15.2282L7.6908 15.2282C8.2732 15.2282 8.7464 14.755 8.7464 14.1752L8.7464 11.5986C8.7464 11.0188 8.2732 10.5456 7.6908 10.5456ZM7.7714 14.1752C7.7714 14.2194 7.735 14.2558 7.6908 14.2558L5.1142 14.2558C5.07 14.2558 5.0336 14.2194 5.0336 14.1752L5.0336 11.5986C5.0336 11.5544 5.07 11.518 5.1142 11.518L7.6908 11.518C7.735 11.518 7.7714 11.5544 7.7714 11.5986L7.7714 14.1752Z" fill="#29B4E7" fill-rule="nonzero" fill-opacity="1" transform="matrix(1 0 0 1.03846 632 105)"/><path d="M14.352 22.5082C14.0842 22.5082 13.8658 22.2898 13.8658 22.022L13.8658 20.4074C13.8658 20.137 14.0842 19.9212 14.352 19.9212L15.8574 19.9212C16.1252 19.9212 16.3436 20.1396 16.3436 20.4074 16.3436 20.6778 16.1252 20.8936 15.8574 20.8936L14.8382 20.8936 14.8382 22.0194C14.8382 22.2924 14.6198 22.5082 14.352 22.5082Z" fill="#29B4E7" fill-rule="nonzero" fill-opacity="1" transform="matrix(1 0 0 1.03846 632 105)"/><path d="M18.4626 23.0126C17.0274 23.0126 15.6702 22.4614 14.6432 21.4604 14.4508 21.2732 14.4456 20.9638 14.6354 20.7714 14.8226 20.579 15.132 20.5764 15.3244 20.761 16.1694 21.5852 17.2848 22.0376 18.4652 22.0376 20.9482 22.0376 22.9684 20.0174 22.9684 17.5344 22.9684 17.0066 22.88 16.4502 22.7396 16.1148 22.6356 15.8652 22.7552 15.5818 23.0048 15.4778 23.2518 15.3764 23.5378 15.4934 23.6418 15.743 23.8316 16.2006 23.9434 16.8688 23.9434 17.5344 23.9382 20.5556 21.4812 23.0126 18.4626 23.0126Z" fill="#29B4E7" fill-rule="nonzero" fill-opacity="1" transform="matrix(1 0 0 1.03846 632 105)"/><path d="M20.9716 15.0904C20.7376 15.0904 20.5322 14.9214 20.4906 14.6822 20.4464 14.417 20.6258 14.1674 20.891 14.1232L21.9284 13.949 21.8868 12.935C21.8764 12.6672 22.0844 12.4384 22.3522 12.428 22.62 12.415 22.8488 12.6256 22.8592 12.8934L22.919 14.3364C22.9294 14.5808 22.7552 14.7966 22.5134 14.8356L21.0522 15.08C21.0236 15.0878 20.9976 15.0904 20.9716 15.0904Z" fill="#29B4E7" fill-rule="nonzero" fill-opacity="1" transform="matrix(1 0 0 1.03846 632 105)"/><path d="M13.663 19.643C13.4888 19.643 13.3198 19.5494 13.2314 19.383 12.9116 18.7746 12.9142 17.6072 12.9142 17.5578 12.9324 14.5392 15.3868 12.0848 18.3898 12.0848 19.76 12.0848 21.6996 12.766 22.7526 14.0686 22.9216 14.2766 22.8904 14.5834 22.6798 14.7524 22.4692 14.9214 22.165 14.8902 21.996 14.6796 21.2472 13.754 19.6976 13.0572 18.3898 13.0572 15.9224 13.0572 13.9022 15.0774 13.8866 17.563 13.884 17.9686 13.9542 18.668 14.092 18.928 14.2168 19.1646 14.1258 19.461 13.8892 19.5858 13.8164 19.6248 13.7384 19.643 13.663 19.643Z" fill="#29B4E7" fill-rule="nonzero" fill-opacity="1" transform="matrix(1 0 0 1.03846 632 105)"/></g></g></g></g></g></svg>