<svg width="29" height="29" xmlns="http://www.w3.org/2000/svg" xmlns:xlink="http://www.w3.org/1999/xlink" xml:space="preserve" overflow="hidden"><g transform="translate(-880 -104)"><g><path d="M892.757 126.852 883.329 126.852C881.856 126.852 880.658 125.654 880.658 124.181L880.658 108.057C880.658 106.584 881.856 105.386 883.329 105.386L899.453 105.386C900.926 105.386 902.124 106.584 902.124 108.057L902.124 113.985C902.124 114.376 901.808 114.695 901.414 114.695 901.022 114.695 900.703 114.376 900.703 113.985L900.703 108.054C900.703 107.364 900.141 106.801 899.45 106.801L883.326 106.801C882.636 106.801 882.073 107.364 882.073 108.054L882.073 124.178C882.073 124.868 882.636 125.431 883.326 125.431L892.754 125.431C893.146 125.431 893.465 125.75 893.465 126.142 893.468 126.533 893.149 126.852 892.757 126.852Z" fill="#29B4E7" fill-rule="nonzero" fill-opacity="1"/><path d="M907.869 122.804 891.391 122.804C891.13 122.804 890.919 122.592 890.919 122.331 890.919 122.07 891.13 121.858 891.391 121.858L907.869 121.858C908.13 121.858 908.342 122.07 908.342 122.331 908.342 122.592 908.13 122.804 907.869 122.804Z" fill="#29B4E7" fill-rule="nonzero" fill-opacity="1"/><path d="M905.381 122.47C905.218 122.47 905.059 122.386 904.972 122.232L903.359 119.442 901.988 119.263C901.852 119.245 901.727 119.167 901.651 119.051L899.903 116.34 898.456 117.787 897.734 119.875C897.684 120.014 897.574 120.124 897.432 120.17L895.353 120.837 894.39 122.261C894.245 122.479 893.949 122.537 893.734 122.389 893.517 122.244 893.462 121.948 893.607 121.733L894.659 120.173C894.718 120.086 894.807 120.02 894.906 119.988L896.916 119.344 897.597 117.375C897.62 117.308 897.658 117.247 897.71 117.195L899.65 115.255C899.752 115.153 899.894 115.101 900.036 115.119 900.178 115.133 900.306 115.211 900.384 115.333L902.33 118.352 903.716 118.535C903.861 118.555 903.992 118.639 904.064 118.767L905.793 121.76C905.923 121.986 905.845 122.276 905.619 122.406 905.543 122.45 905.462 122.47 905.381 122.47Z" fill="#29B4E7" fill-rule="nonzero" fill-opacity="1"/><path d="M900.66 131.617C900.564 131.617 900.471 131.588 900.393 131.533L897.82 129.764C897.736 129.706 897.673 129.624 897.641 129.526L896.602 126.49 894.732 125.399C894.648 125.35 894.581 125.274 894.541 125.187L893.908 123.798C893.801 123.561 893.906 123.279 894.143 123.172 894.381 123.062 894.662 123.169 894.77 123.407L895.341 124.66 897.235 125.765C897.333 125.823 897.406 125.912 897.443 126.02L898.487 129.076 900.448 130.428 901.785 127.197C901.857 127.02 902.031 126.904 902.223 126.904L902.724 126.904 904.369 123.404C904.479 123.166 904.76 123.065 904.998 123.178 905.236 123.288 905.337 123.569 905.224 123.807L903.452 127.58C903.374 127.745 903.209 127.853 903.023 127.853L902.539 127.853 901.1 131.333C901.045 131.466 900.935 131.564 900.799 131.605 900.75 131.611 900.706 131.617 900.66 131.617Z" fill="#29B4E7" fill-rule="nonzero" fill-opacity="1"/><path d="M902.231 122.47C902.069 122.47 901.909 122.386 901.823 122.235L901.187 121.145 899.772 118.465C899.752 118.425 899.737 118.384 899.729 118.34L899.285 116.2C899.233 115.945 899.395 115.696 899.65 115.641 899.906 115.588 900.155 115.751 900.21 116.009L900.642 118.085 902.017 120.687 902.643 121.76C902.774 121.986 902.698 122.273 902.472 122.406 902.394 122.447 902.313 122.47 902.231 122.47Z" fill="#29B4E7" fill-rule="nonzero" fill-opacity="1"/><path d="M892.641 112.932 890.141 112.932C889.576 112.932 889.118 112.474 889.118 111.908L889.118 109.409C889.118 108.843 889.576 108.385 890.141 108.385L892.641 108.385C893.207 108.385 893.665 108.843 893.665 109.409L893.665 111.908C893.665 112.474 893.207 112.932 892.641 112.932ZM890.141 109.327C890.098 109.327 890.063 109.362 890.063 109.406L890.063 111.905C890.063 111.949 890.098 111.984 890.141 111.984L892.641 111.984C892.685 111.984 892.719 111.949 892.719 111.905L892.719 109.406C892.719 109.362 892.685 109.327 892.641 109.327L890.141 109.327Z" fill="#29B4E7" fill-rule="nonzero" fill-opacity="1"/><path d="M892.641 118.352 890.141 118.352C889.576 118.352 889.118 117.894 889.118 117.328L889.118 114.829C889.118 114.263 889.576 113.805 890.141 113.805L892.641 113.805C893.207 113.805 893.665 114.263 893.665 114.829L893.665 117.328C893.665 117.894 893.207 118.352 892.641 118.352ZM890.141 114.75C890.098 114.75 890.063 114.785 890.063 114.829L890.063 117.328C890.063 117.372 890.098 117.407 890.141 117.407L892.641 117.407C892.685 117.407 892.719 117.372 892.719 117.328L892.719 114.829C892.719 114.785 892.685 114.75 892.641 114.75L890.141 114.75Z" fill="#29B4E7" fill-rule="nonzero" fill-opacity="1"/><path d="M898.096 112.932 895.596 112.932C895.031 112.932 894.573 112.474 894.573 111.908L894.573 109.409C894.573 108.843 895.031 108.385 895.596 108.385L898.096 108.385C898.661 108.385 899.12 108.843 899.12 109.409L899.12 111.908C899.12 112.474 898.659 112.932 898.096 112.932ZM895.593 109.327C895.55 109.327 895.515 109.362 895.515 109.406L895.515 111.905C895.515 111.949 895.55 111.984 895.593 111.984L898.093 111.984C898.137 111.984 898.171 111.949 898.171 111.905L898.171 109.406C898.171 109.362 898.137 109.327 898.093 109.327L895.593 109.327Z" fill="#29B4E7" fill-rule="nonzero" fill-opacity="1"/><path d="M887.189 112.932 884.689 112.932C884.124 112.932 883.666 112.474 883.666 111.908L883.666 109.409C883.666 108.843 884.124 108.385 884.689 108.385L887.189 108.385C887.755 108.385 888.213 108.843 888.213 109.409L888.213 111.908C888.213 112.474 887.755 112.932 887.189 112.932ZM884.686 109.327C884.643 109.327 884.608 109.362 884.608 109.406L884.608 111.905C884.608 111.949 884.643 111.984 884.686 111.984L887.186 111.984C887.23 111.984 887.265 111.949 887.265 111.905L887.265 109.406C887.265 109.362 887.23 109.327 887.186 109.327L884.686 109.327Z" fill="#29B4E7" fill-rule="nonzero" fill-opacity="1"/><path d="M887.189 118.352 884.689 118.352C884.124 118.352 883.666 117.894 883.666 117.328L883.666 114.829C883.666 114.263 884.124 113.805 884.689 113.805L887.189 113.805C887.755 113.805 888.213 114.263 888.213 114.829L888.213 117.328C888.213 117.894 887.755 118.352 887.189 118.352ZM884.686 114.75C884.643 114.75 884.608 114.785 884.608 114.829L884.608 117.328C884.608 117.372 884.643 117.407 884.686 117.407L887.186 117.407C887.23 117.407 887.265 117.372 887.265 117.328L887.265 114.829C887.265 114.785 887.23 114.75 887.186 114.75L884.686 114.75Z" fill="#29B4E7" fill-rule="nonzero" fill-opacity="1"/><path d="M887.189 123.824 884.689 123.824C884.124 123.824 883.666 123.366 883.666 122.801L883.666 120.301C883.666 119.735 884.124 119.277 884.689 119.277L887.189 119.277C887.755 119.277 888.213 119.735 888.213 120.301L888.213 122.801C888.213 123.366 887.755 123.824 887.189 123.824ZM884.686 120.223C884.643 120.223 884.608 120.257 884.608 120.301L884.608 122.801C884.608 122.844 884.643 122.879 884.686 122.879L887.186 122.879C887.23 122.879 887.265 122.844 887.265 122.801L887.265 120.301C887.265 120.257 887.23 120.223 887.186 120.223L884.686 120.223Z" fill="#29B4E7" fill-rule="nonzero" fill-opacity="1"/></g></g></svg>