<svg width="24" height="26" xmlns="http://www.w3.org/2000/svg" xmlns:xlink="http://www.w3.org/1999/xlink" xml:space="preserve" overflow="hidden"><g transform="translate(-716 -270)"><g><g><g><g><path d="M739.177 280.257C739.174 280.254 739.172 280.252 739.17 280.25L730.755 271.864C730.4 271.494 729.762 271.228 729.238 271.228L726.762 271.228C726.238 271.228 725.6 271.497 725.252 271.857L716.823 280.257C716.466 280.622 716.206 281.255 716.206 281.766L716.206 284.241C716.206 284.75 716.468 285.381 716.828 285.743L725.247 294.136C725.612 294.508 726.248 294.777 726.762 294.777L729.236 294.777C729.75 294.777 730.386 294.508 730.746 294.141L739.172 285.741C739.53 285.378 739.791 284.75 739.791 284.243L739.791 281.764C739.794 281.255 739.534 280.622 739.177 280.257ZM738.514 284.238C738.514 284.404 738.385 284.718 738.27 284.834L729.841 293.236C729.716 293.363 729.411 293.493 729.238 293.493L726.762 293.493C726.591 293.493 726.282 293.361 726.154 293.231L717.733 284.834C717.615 284.716 717.486 284.404 717.486 284.236L717.486 281.764C717.486 281.591 717.615 281.274 717.73 281.157L726.164 272.752C726.279 272.632 726.589 272.505 726.764 272.505L729.238 272.505C729.414 272.505 729.721 272.632 729.846 272.759L738.265 281.15C738.387 281.277 738.514 281.589 738.514 281.762L738.514 284.238Z" fill="#29B4E7" fill-rule="nonzero" fill-opacity="1"/><path d="M731.727 276.453C731.106 276.484 730.532 276.755 730.114 277.216 729.697 277.677 729.483 278.274 729.514 278.896 729.541 279.436 729.757 279.93 730.114 280.329L729.49 281.109C729.133 280.919 728.732 280.802 728.3 280.802 727.902 280.802 727.527 280.9 727.189 281.063L725.982 279.633C726.183 279.342 726.303 278.99 726.303 278.608 726.303 277.612 725.494 276.803 724.498 276.803 723.502 276.803 722.691 277.612 722.691 278.608 722.691 279.604 723.502 280.413 724.498 280.413 724.645 280.413 724.784 280.391 724.921 280.358L726.207 281.884C725.907 282.304 725.727 282.815 725.727 283.37 725.727 283.437 725.742 283.499 725.746 283.566L724.818 283.727C724.698 283.518 724.554 283.322 724.369 283.154 723.908 282.736 723.31 282.52 722.689 282.554 722.067 282.585 721.494 282.856 721.076 283.317 720.658 283.778 720.445 284.375 720.476 284.997 720.538 286.242 721.57 287.212 722.804 287.212 722.842 287.212 722.881 287.212 722.922 287.21 723.543 287.178 724.117 286.907 724.534 286.446 724.906 286.036 725.106 285.515 725.125 284.97L726.159 284.79C726.62 285.482 727.407 285.938 728.298 285.938 728.629 285.938 728.943 285.87 729.236 285.755L729.92 286.677C729.714 286.97 729.589 287.327 729.589 287.711 729.589 288.707 730.398 289.516 731.394 289.516 732.39 289.516 733.201 288.707 733.201 287.711 733.201 286.715 732.39 285.906 731.394 285.906 731.25 285.906 731.113 285.928 730.978 285.959L730.266 285.004C730.635 284.558 730.868 283.994 730.868 283.372 730.868 282.851 730.71 282.369 730.443 281.963L731.204 281.013C731.41 281.073 731.622 281.111 731.842 281.111 731.881 281.111 731.922 281.111 731.962 281.109 732.584 281.078 733.158 280.806 733.575 280.346 733.993 279.885 734.206 279.287 734.175 278.666 734.175 278.666 734.175 278.666 734.175 278.666 734.108 277.379 733.011 276.383 731.727 276.453ZM723.97 278.61C723.97 278.32 724.208 278.082 724.498 278.082 724.789 278.082 725.026 278.32 725.026 278.61 725.026 278.716 724.988 278.807 724.935 278.889 724.825 278.908 724.717 278.944 724.626 279.021 724.59 279.052 724.568 279.093 724.539 279.131 724.525 279.134 724.513 279.138 724.498 279.138 724.206 279.136 723.97 278.901 723.97 278.61ZM723.858 284.834C723.872 285.114 723.776 285.383 723.586 285.592 723.397 285.801 723.14 285.923 722.859 285.938 722.276 285.959 721.784 285.518 721.755 284.937 721.741 284.656 721.837 284.387 722.026 284.178 722.216 283.97 722.475 283.847 722.754 283.833 722.773 283.833 722.79 283.83 722.809 283.83 723.07 283.83 723.32 283.926 723.514 284.104 723.721 284.294 723.843 284.553 723.858 284.834 723.858 284.834 723.858 284.834 723.858 284.834ZM727.006 283.372C727.006 282.659 727.585 282.081 728.298 282.081 729.01 282.081 729.589 282.659 729.589 283.372 729.589 284.085 729.008 284.663 728.298 284.663 727.585 284.663 727.006 284.085 727.006 283.372ZM731.922 287.714C731.922 288.004 731.684 288.242 731.394 288.242 731.103 288.242 730.866 288.004 730.866 287.714 730.866 287.423 731.103 287.186 731.394 287.186 731.686 287.186 731.922 287.421 731.922 287.714ZM732.625 279.486C732.435 279.695 732.176 279.818 731.895 279.832 731.61 279.846 731.346 279.748 731.137 279.561 730.928 279.371 730.806 279.114 730.791 278.834 730.777 278.553 730.873 278.282 731.062 278.075 731.252 277.866 731.509 277.744 731.792 277.73 731.809 277.73 731.828 277.727 731.845 277.727 732.402 277.727 732.867 278.166 732.896 278.728 732.91 279.009 732.814 279.28 732.625 279.486Z" fill="#29B4E7" fill-rule="nonzero" fill-opacity="1"/></g></g></g></g></g></svg>