<svg width="24" height="23" xmlns="http://www.w3.org/2000/svg" xmlns:xlink="http://www.w3.org/1999/xlink" xml:space="preserve" overflow="hidden"><defs><clipPath id="clip0"><rect x="384" y="189" width="24" height="23"/></clipPath><clipPath id="clip1"><rect x="384" y="189" width="24" height="23"/></clipPath><clipPath id="clip2"><rect x="385" y="190" width="22" height="22"/></clipPath><clipPath id="clip3"><rect x="385" y="190" width="22" height="22"/></clipPath><clipPath id="clip4"><rect x="385" y="190" width="22" height="22"/></clipPath></defs><g clip-path="url(#clip0)" transform="translate(-384 -189)"><g clip-path="url(#clip1)"><g clip-path="url(#clip2)"><g clip-path="url(#clip3)"><g clip-path="url(#clip4)"><path d="M369.6 198.716C365.189 198.716 360.501 197.335 360.501 194.774 360.501 192.213 365.189 190.832 369.6 190.832 374.011 190.832 378.699 192.213 378.699 194.774 378.699 197.335 374.011 198.716 369.6 198.716ZM369.6 192.288C364.934 192.288 361.955 193.76 361.955 194.774 361.955 195.788 364.932 197.26 369.6 197.26 374.266 197.26 377.245 195.788 377.245 194.774 377.245 193.76 374.266 192.288 369.6 192.288Z" fill="#28B5E8" fill-rule="nonzero" fill-opacity="1"/><path d="M369.6 211.168C365.189 211.168 360.501 209.787 360.501 207.226L360.501 194.774C360.501 194.371 360.826 194.046 361.229 194.046 361.632 194.046 361.957 194.371 361.957 194.774L361.957 207.226C361.957 208.24 364.934 209.714 369.602 209.714 374.268 209.714 377.247 208.24 377.247 207.226L377.247 194.774C377.247 194.371 377.573 194.046 377.975 194.046 378.378 194.046 378.704 194.371 378.704 194.774L378.704 207.226C378.699 209.787 374.011 211.168 369.6 211.168Z" fill="#28B5E8" fill-rule="nonzero" fill-opacity="1"/><path d="M374.708 203.05 371.956 201.521C371.903 201.493 371.846 201.473 371.785 201.466 371.725 201.46 371.664 201.464 371.606 201.482 371.549 201.499 371.494 201.526 371.448 201.563 371.402 201.601 371.362 201.647 371.331 201.7 371.303 201.752 371.283 201.81 371.276 201.871 371.27 201.931 371.274 201.992 371.292 202.049 371.309 202.107 371.336 202.162 371.373 202.208 371.411 202.254 371.457 202.294 371.51 202.324L373.556 203.462 371.501 204.654C371.413 204.705 371.345 204.784 371.307 204.876 371.27 204.969 371.263 205.072 371.29 205.171 371.316 205.268 371.373 205.354 371.455 205.415 371.534 205.477 371.633 205.51 371.734 205.51 371.815 205.51 371.895 205.488 371.963 205.448L374.715 203.851C374.785 203.812 374.843 203.752 374.884 203.682 374.924 203.611 374.946 203.532 374.944 203.451 374.944 203.369 374.922 203.29 374.88 203.22 374.84 203.147 374.781 203.09 374.708 203.05Z" fill="#28B5E8" fill-rule="nonzero" fill-opacity="1"/><path d="M367.688 204.648 365.642 203.51 367.697 202.318C367.75 202.287 367.794 202.247 367.831 202.199 367.869 202.151 367.895 202.096 367.91 202.038 367.926 201.981 367.93 201.92 367.921 201.86 367.913 201.801 367.893 201.744 367.864 201.691 367.833 201.638 367.794 201.594 367.745 201.557 367.697 201.519 367.642 201.493 367.585 201.477 367.528 201.462 367.466 201.458 367.407 201.466 367.347 201.475 367.29 201.495 367.237 201.524L364.485 203.121C364.415 203.16 364.357 203.22 364.316 203.29 364.276 203.361 364.254 203.44 364.256 203.521 364.256 203.603 364.278 203.682 364.32 203.752 364.362 203.823 364.421 203.88 364.492 203.919L367.246 205.448C367.352 205.508 367.477 205.521 367.596 205.488 367.712 205.455 367.811 205.376 367.871 205.27 367.93 205.165 367.943 205.039 367.91 204.92 367.873 204.806 367.796 204.707 367.688 204.648Z" fill="#28B5E8" fill-rule="nonzero" fill-opacity="1"/><path d="M370.245 200.707C370.185 200.694 370.126 200.692 370.066 200.701 370.007 200.71 369.95 200.732 369.899 200.765 369.849 200.795 369.805 200.837 369.769 200.888 369.734 200.936 369.71 200.993 369.697 201.051L368.614 205.71C368.601 205.77 368.599 205.829 368.608 205.891 368.619 205.95 368.639 206.007 368.672 206.058 368.705 206.108 368.746 206.152 368.795 206.188 368.843 206.223 368.9 206.247 368.958 206.26L369.061 206.271C369.164 206.271 369.266 206.236 369.347 206.172 369.428 206.108 369.486 206.018 369.508 205.917L370.59 201.257C370.603 201.198 370.605 201.139 370.597 201.077 370.586 201.018 370.566 200.96 370.533 200.91 370.5 200.859 370.458 200.815 370.41 200.78 370.359 200.747 370.304 200.721 370.245 200.707Z" fill="#28B5E8" fill-rule="nonzero" fill-opacity="1"/><path d="M367.818 194.704C367.84 194.682 367.851 194.657 367.849 194.635 367.847 194.618 367.84 194.602 367.825 194.585 367.781 194.534 367.673 194.488 367.512 194.457L365.24 194.044C364.918 193.984 364.509 194.019 364.324 194.121 364.14 194.222 364.247 194.349 364.569 194.409L365.838 194.64 364.569 194.871C364.247 194.93 364.137 195.058 364.324 195.159 364.509 195.26 364.918 195.295 365.24 195.236L367.512 194.822C367.666 194.796 367.77 194.752 367.818 194.704Z" fill="#28B5E8" fill-rule="evenodd" fill-opacity="1"/><path d="M368.436 195.091C368.304 195.086 368.17 195.095 368.047 195.119L365.772 195.533C365.453 195.592 365.343 195.72 365.528 195.821 365.713 195.922 366.122 195.958 366.443 195.898L367.717 195.667 367.717 196.131C367.717 196.248 368.016 196.343 368.388 196.343 368.757 196.343 369.057 196.248 369.057 196.131L369.057 195.302C369.054 195.192 368.782 195.1 368.436 195.091Z" fill="#28B5E8" fill-rule="evenodd" fill-opacity="1"/><path d="M370.766 194.191C370.896 194.195 371.032 194.187 371.153 194.162L373.428 193.749C373.749 193.689 373.857 193.562 373.672 193.461 373.487 193.359 373.078 193.324 372.759 193.384L371.485 193.617 371.485 193.153C371.485 193.036 371.186 192.941 370.814 192.941 370.443 192.941 370.146 193.036 370.146 193.153L370.146 193.982C370.146 194.092 370.418 194.182 370.766 194.191Z" fill="#28B5E8" fill-rule="evenodd" fill-opacity="1"/><path d="M365.772 193.749 368.047 194.162C368.17 194.184 368.304 194.193 368.436 194.191 368.782 194.182 369.057 194.092 369.057 193.98L369.057 193.15C369.057 193.034 368.755 192.939 368.388 192.939 368.016 192.939 367.717 193.034 367.717 193.15L367.717 193.615 366.443 193.381C366.124 193.322 365.715 193.357 365.528 193.458 365.343 193.562 365.451 193.692 365.772 193.749Z" fill="#28B5E8" fill-rule="evenodd" fill-opacity="1"/><path d="M370.803 194.561 369.857 194.264C369.831 194.255 369.776 194.248 369.739 194.248L369.67 194.248 369.532 194.248 369.461 194.248C369.424 194.248 369.369 194.255 369.343 194.264L368.397 194.561C368.37 194.569 368.348 194.587 368.348 194.598L368.348 194.62 368.348 194.664 368.348 194.686C368.348 194.697 368.37 194.715 368.397 194.723L369.343 195.02C369.369 195.029 369.424 195.036 369.461 195.036L369.532 195.036 369.67 195.036 369.739 195.036C369.778 195.036 369.831 195.029 369.857 195.02L370.803 194.723C370.83 194.715 370.852 194.699 370.852 194.686L370.852 194.664 370.852 194.62 370.852 194.598C370.852 194.585 370.83 194.569 370.803 194.561ZM370.047 194.644C370.047 194.655 370.025 194.673 369.996 194.682L369.723 194.767C369.697 194.776 369.644 194.783 369.604 194.783L369.593 194.783C369.556 194.783 369.503 194.776 369.475 194.767L369.202 194.682C369.175 194.673 369.153 194.655 369.153 194.644L369.153 194.64C369.153 194.629 369.175 194.611 369.202 194.602L369.475 194.517C369.501 194.508 369.554 194.501 369.593 194.501L369.604 194.501C369.642 194.501 369.697 194.508 369.723 194.517L369.996 194.602C370.022 194.611 370.047 194.629 370.047 194.64L370.047 194.644Z" fill="#28B5E8" fill-rule="evenodd" fill-opacity="1"/><path d="M373.428 195.533 371.153 195.119C371.03 195.097 370.896 195.089 370.766 195.091 370.418 195.1 370.146 195.19 370.146 195.302L370.146 196.131C370.146 196.248 370.445 196.343 370.814 196.343 371.184 196.343 371.485 196.248 371.485 196.131L371.485 195.667 372.759 195.898C373.078 195.958 373.487 195.922 373.672 195.821 373.857 195.722 373.749 195.592 373.428 195.533Z" fill="#28B5E8" fill-rule="evenodd" fill-opacity="1"/><path d="M374.629 194.411 373.36 194.642 374.629 194.873C374.95 194.932 375.06 195.06 374.873 195.161 374.689 195.262 374.279 195.298 373.958 195.238L371.683 194.825C371.532 194.796 371.426 194.752 371.38 194.704 371.358 194.682 371.347 194.657 371.349 194.635 371.351 194.618 371.358 194.602 371.373 194.585 371.419 194.534 371.525 194.488 371.683 194.457L373.958 194.044C374.277 193.984 374.686 194.019 374.873 194.121 375.06 194.222 374.95 194.352 374.629 194.411Z" fill="#28B5E8" fill-rule="evenodd" fill-opacity="1"/><path d="M396 198.716C391.589 198.716 386.901 197.335 386.901 194.774 386.901 192.213 391.589 190.832 396 190.832 400.411 190.832 405.099 192.213 405.099 194.774 405.099 197.335 400.411 198.716 396 198.716ZM396 192.288C391.334 192.288 388.355 193.76 388.355 194.774 388.355 195.788 391.334 197.262 396 197.262 400.666 197.262 403.645 195.79 403.645 194.776 403.645 193.762 400.666 192.288 396 192.288Z" fill="#28B5E8" fill-rule="nonzero" fill-opacity="1"/><path d="M396 211.168C391.589 211.168 386.901 209.787 386.901 207.226L386.901 194.774C386.901 194.371 387.226 194.046 387.629 194.046 388.032 194.046 388.357 194.371 388.357 194.774L388.357 207.226C388.357 208.24 391.334 209.714 396.002 209.714 400.668 209.714 403.647 208.24 403.647 207.226L403.647 194.774C403.647 194.371 403.973 194.046 404.375 194.046 404.778 194.046 405.104 194.371 405.104 194.774L405.104 207.226C405.099 209.787 400.411 211.168 396 211.168Z" fill="#28B5E8" fill-rule="nonzero" fill-opacity="1"/><path d="M401.108 203.05 398.356 201.521C398.303 201.493 398.246 201.473 398.185 201.466 398.125 201.46 398.064 201.464 398.006 201.482 397.949 201.499 397.894 201.526 397.848 201.563 397.802 201.601 397.762 201.647 397.731 201.7 397.703 201.752 397.683 201.81 397.676 201.871 397.67 201.931 397.674 201.992 397.692 202.049 397.709 202.107 397.736 202.162 397.773 202.208 397.811 202.254 397.857 202.294 397.91 202.324L399.956 203.462 397.901 204.654C397.813 204.705 397.745 204.784 397.707 204.876 397.67 204.969 397.663 205.072 397.69 205.171 397.716 205.268 397.773 205.354 397.855 205.415 397.934 205.477 398.033 205.51 398.134 205.51 398.215 205.51 398.295 205.488 398.363 205.448L401.115 203.851C401.185 203.812 401.243 203.752 401.284 203.682 401.324 203.611 401.346 203.532 401.344 203.451 401.344 203.369 401.322 203.29 401.28 203.22 401.24 203.147 401.181 203.09 401.108 203.05Z" fill="#28B5E8" fill-rule="nonzero" fill-opacity="1"/><path d="M394.088 204.648 392.042 203.51 394.097 202.318C394.15 202.287 394.194 202.247 394.231 202.199 394.269 202.151 394.295 202.096 394.31 202.038 394.326 201.981 394.33 201.92 394.321 201.86 394.313 201.801 394.293 201.744 394.264 201.691 394.233 201.638 394.194 201.594 394.145 201.557 394.097 201.519 394.042 201.493 393.985 201.477 393.928 201.462 393.866 201.458 393.807 201.466 393.747 201.475 393.69 201.495 393.637 201.524L390.885 203.121C390.815 203.16 390.757 203.22 390.716 203.29 390.676 203.361 390.654 203.44 390.656 203.521 390.656 203.603 390.678 203.682 390.72 203.752 390.762 203.823 390.821 203.88 390.892 203.919L393.646 205.448C393.752 205.508 393.877 205.521 393.996 205.488 394.112 205.455 394.211 205.376 394.271 205.27 394.33 205.165 394.343 205.039 394.31 204.92 394.273 204.806 394.196 204.707 394.088 204.648Z" fill="#28B5E8" fill-rule="nonzero" fill-opacity="1"/><path d="M396.645 200.707C396.585 200.694 396.526 200.692 396.466 200.701 396.407 200.71 396.35 200.732 396.299 200.765 396.249 200.795 396.205 200.837 396.169 200.888 396.134 200.938 396.11 200.993 396.097 201.051L395.01 205.71C394.997 205.77 394.995 205.829 395.003 205.891 395.014 205.95 395.034 206.007 395.067 206.058 395.1 206.108 395.142 206.152 395.19 206.188 395.239 206.223 395.296 206.247 395.353 206.26L395.457 206.271C395.56 206.271 395.661 206.236 395.743 206.172 395.824 206.108 395.881 206.018 395.903 205.917L396.986 201.257C396.999 201.198 397.001 201.139 396.992 201.077 396.981 201.018 396.961 200.96 396.928 200.91 396.895 200.859 396.854 200.815 396.805 200.78 396.759 200.747 396.704 200.721 396.645 200.707Z" fill="#28B5E8" fill-rule="nonzero" fill-opacity="1"/><path d="M394.218 194.704C394.24 194.682 394.251 194.657 394.249 194.635 394.247 194.618 394.24 194.602 394.225 194.585 394.181 194.534 394.073 194.488 393.912 194.457L391.64 194.044C391.318 193.984 390.909 194.019 390.724 194.121 390.54 194.222 390.647 194.349 390.969 194.409L392.238 194.64 390.969 194.871C390.647 194.93 390.537 195.058 390.724 195.159 390.909 195.26 391.318 195.295 391.64 195.236L393.912 194.822C394.066 194.796 394.17 194.752 394.218 194.704Z" fill="#28B5E8" fill-rule="evenodd" fill-opacity="1"/><path d="M394.836 195.091C394.704 195.086 394.57 195.095 394.447 195.119L392.172 195.533C391.853 195.592 391.743 195.72 391.928 195.821 392.113 195.922 392.522 195.958 392.843 195.898L394.117 195.667 394.117 196.131C394.117 196.248 394.416 196.343 394.788 196.343 395.157 196.343 395.457 196.248 395.457 196.131L395.457 195.302C395.454 195.192 395.182 195.1 394.836 195.091Z" fill="#28B5E8" fill-rule="evenodd" fill-opacity="1"/><path d="M397.166 194.191C397.296 194.195 397.432 194.187 397.553 194.162L399.828 193.749C400.149 193.689 400.257 193.562 400.072 193.461 399.887 193.359 399.478 193.324 399.159 193.384L397.885 193.617 397.885 193.153C397.885 193.036 397.586 192.941 397.214 192.941 396.843 192.941 396.546 193.036 396.546 193.153L396.546 193.982C396.546 194.092 396.818 194.182 397.166 194.191Z" fill="#28B5E8" fill-rule="evenodd" fill-opacity="1"/><path d="M392.172 193.749 394.447 194.162C394.57 194.184 394.704 194.193 394.836 194.191 395.182 194.182 395.457 194.092 395.457 193.98L395.457 193.15C395.457 193.034 395.155 192.939 394.788 192.939 394.416 192.939 394.117 193.034 394.117 193.15L394.117 193.615 392.843 193.381C392.524 193.322 392.115 193.357 391.928 193.458 391.743 193.562 391.851 193.692 392.172 193.749Z" fill="#28B5E8" fill-rule="evenodd" fill-opacity="1"/><path d="M397.203 194.561 396.257 194.264C396.231 194.255 396.176 194.248 396.139 194.248L396.07 194.248 395.932 194.248 395.861 194.248C395.824 194.248 395.769 194.255 395.743 194.264L394.797 194.561C394.77 194.569 394.748 194.587 394.748 194.598L394.748 194.62 394.748 194.664 394.748 194.686C394.748 194.697 394.77 194.715 394.797 194.723L395.743 195.02C395.769 195.029 395.824 195.036 395.861 195.036L395.932 195.036 396.07 195.036 396.139 195.036C396.178 195.036 396.231 195.029 396.257 195.02L397.203 194.723C397.23 194.715 397.252 194.699 397.252 194.686L397.252 194.664 397.252 194.62 397.252 194.598C397.252 194.585 397.23 194.569 397.203 194.561ZM396.447 194.644C396.447 194.655 396.425 194.673 396.396 194.682L396.123 194.767C396.097 194.776 396.044 194.783 396.004 194.783L395.993 194.783C395.956 194.783 395.903 194.776 395.875 194.767L395.602 194.682C395.575 194.673 395.553 194.655 395.553 194.644L395.553 194.64C395.553 194.629 395.575 194.611 395.602 194.602L395.875 194.517C395.901 194.508 395.954 194.501 395.993 194.501L396.004 194.501C396.042 194.501 396.097 194.508 396.123 194.517L396.396 194.602C396.422 194.611 396.447 194.629 396.447 194.64L396.447 194.644Z" fill="#28B5E8" fill-rule="evenodd" fill-opacity="1"/><path d="M399.828 195.533 397.553 195.119C397.43 195.097 397.296 195.089 397.166 195.091 396.818 195.1 396.546 195.19 396.546 195.302L396.546 196.131C396.546 196.248 396.845 196.343 397.214 196.343 397.584 196.343 397.885 196.248 397.885 196.131L397.885 195.667 399.159 195.898C399.478 195.958 399.887 195.922 400.072 195.821 400.257 195.722 400.149 195.592 399.828 195.533Z" fill="#28B5E8" fill-rule="evenodd" fill-opacity="1"/><path d="M401.029 194.411 399.76 194.642 401.029 194.873C401.35 194.932 401.46 195.06 401.273 195.161 401.089 195.262 400.679 195.298 400.358 195.238L398.083 194.825C397.932 194.796 397.826 194.752 397.78 194.704 397.758 194.682 397.747 194.657 397.749 194.635 397.751 194.618 397.758 194.602 397.773 194.585 397.819 194.534 397.925 194.488 398.083 194.457L400.358 194.044C400.677 193.984 401.086 194.019 401.273 194.121 401.46 194.222 401.35 194.352 401.029 194.411Z" fill="#28B5E8" fill-rule="evenodd" fill-opacity="1"/><path d="M422.4 198.716C417.989 198.716 413.301 197.335 413.301 194.774 413.301 192.213 417.989 190.832 422.4 190.832 426.811 190.832 431.499 192.213 431.499 194.774 431.499 197.335 426.811 198.716 422.4 198.716ZM422.4 192.288C417.734 192.288 414.755 193.76 414.755 194.774 414.755 195.788 417.732 197.26 422.4 197.26 427.066 197.26 430.045 195.788 430.045 194.774 430.045 193.76 427.066 192.288 422.4 192.288Z" fill="#28B5E8" fill-rule="nonzero" fill-opacity="1"/><path d="M422.4 211.168C417.989 211.168 413.301 209.787 413.301 207.226L413.301 194.774C413.301 194.371 413.626 194.046 414.029 194.046 414.432 194.046 414.757 194.371 414.757 194.774L414.757 207.226C414.757 208.24 417.734 209.714 422.402 209.714 427.068 209.714 430.047 208.24 430.047 207.226L430.047 194.774C430.047 194.371 430.373 194.046 430.775 194.046 431.178 194.046 431.504 194.371 431.504 194.774L431.504 207.226C431.499 209.787 426.811 211.168 422.4 211.168Z" fill="#28B5E8" fill-rule="nonzero" fill-opacity="1"/><path d="M427.508 203.05 424.756 201.521C424.703 201.493 424.646 201.473 424.585 201.466 424.525 201.46 424.464 201.464 424.406 201.482 424.349 201.499 424.294 201.526 424.248 201.563 424.202 201.601 424.162 201.647 424.131 201.7 424.103 201.752 424.083 201.81 424.076 201.871 424.07 201.931 424.074 201.992 424.092 202.049 424.109 202.107 424.136 202.162 424.173 202.208 424.211 202.254 424.257 202.294 424.31 202.324L426.356 203.462 424.301 204.654C424.213 204.705 424.145 204.784 424.107 204.876 424.07 204.969 424.063 205.072 424.09 205.171 424.116 205.268 424.173 205.354 424.255 205.415 424.334 205.477 424.433 205.51 424.534 205.51 424.615 205.51 424.695 205.488 424.763 205.448L427.515 203.851C427.585 203.812 427.643 203.752 427.684 203.682 427.724 203.611 427.746 203.532 427.744 203.451 427.744 203.369 427.722 203.29 427.68 203.22 427.64 203.147 427.581 203.09 427.508 203.05Z" fill="#28B5E8" fill-rule="nonzero" fill-opacity="1"/><path d="M420.488 204.648 418.442 203.51 420.497 202.318C420.55 202.287 420.594 202.247 420.631 202.199 420.669 202.151 420.695 202.096 420.71 202.038 420.726 201.981 420.73 201.92 420.721 201.86 420.713 201.801 420.693 201.744 420.664 201.691 420.636 201.638 420.594 201.594 420.545 201.557 420.497 201.519 420.442 201.493 420.385 201.477 420.328 201.462 420.266 201.458 420.207 201.466 420.147 201.475 420.09 201.495 420.037 201.524L417.285 203.121C417.215 203.16 417.157 203.22 417.116 203.29 417.076 203.361 417.054 203.44 417.056 203.521 417.056 203.603 417.078 203.682 417.12 203.752 417.162 203.823 417.221 203.88 417.292 203.919L420.046 205.448C420.152 205.508 420.277 205.521 420.396 205.488 420.512 205.455 420.611 205.376 420.671 205.27 420.73 205.165 420.743 205.039 420.71 204.92 420.673 204.806 420.596 204.707 420.488 204.648Z" fill="#28B5E8" fill-rule="nonzero" fill-opacity="1"/><path d="M423.045 200.707C422.985 200.694 422.926 200.692 422.866 200.701 422.807 200.71 422.75 200.732 422.699 200.765 422.649 200.795 422.605 200.837 422.569 200.888 422.534 200.936 422.51 200.993 422.497 201.051L421.414 205.71C421.401 205.77 421.399 205.829 421.408 205.891 421.419 205.95 421.439 206.007 421.472 206.058 421.505 206.108 421.546 206.152 421.595 206.188 421.643 206.223 421.7 206.247 421.758 206.26L421.861 206.271C421.964 206.271 422.066 206.236 422.147 206.172 422.228 206.108 422.286 206.018 422.308 205.917L423.39 201.257C423.403 201.198 423.405 201.139 423.397 201.077 423.386 201.018 423.366 200.96 423.333 200.91 423.3 200.859 423.258 200.815 423.21 200.78 423.159 200.747 423.104 200.721 423.045 200.707Z" fill="#28B5E8" fill-rule="nonzero" fill-opacity="1"/><path d="M420.618 194.704C420.64 194.682 420.651 194.657 420.649 194.635 420.647 194.618 420.64 194.602 420.625 194.585 420.581 194.534 420.473 194.488 420.312 194.457L418.04 194.044C417.718 193.984 417.309 194.019 417.124 194.121 416.94 194.222 417.047 194.349 417.369 194.409L418.638 194.64 417.369 194.871C417.047 194.93 416.937 195.058 417.124 195.159 417.309 195.26 417.718 195.295 418.04 195.236L420.312 194.822C420.466 194.796 420.57 194.752 420.618 194.704Z" fill="#28B5E8" fill-rule="evenodd" fill-opacity="1"/><path d="M421.236 195.091C421.104 195.086 420.97 195.095 420.847 195.119L418.572 195.533C418.253 195.592 418.143 195.72 418.328 195.821 418.513 195.922 418.922 195.958 419.243 195.898L420.517 195.667 420.517 196.131C420.517 196.248 420.816 196.343 421.188 196.343 421.557 196.343 421.857 196.248 421.857 196.131L421.857 195.302C421.854 195.192 421.582 195.1 421.236 195.091Z" fill="#28B5E8" fill-rule="evenodd" fill-opacity="1"/><path d="M423.566 194.191C423.696 194.195 423.832 194.187 423.953 194.162L426.228 193.749C426.549 193.689 426.657 193.562 426.472 193.461 426.287 193.359 425.878 193.324 425.559 193.384L424.285 193.617 424.285 193.153C424.285 193.036 423.986 192.941 423.614 192.941 423.243 192.941 422.946 193.036 422.946 193.153L422.946 193.982C422.946 194.092 423.218 194.182 423.566 194.191Z" fill="#28B5E8" fill-rule="evenodd" fill-opacity="1"/><path d="M418.572 193.749 420.847 194.162C420.97 194.184 421.104 194.193 421.236 194.191 421.582 194.182 421.857 194.092 421.857 193.98L421.857 193.15C421.857 193.034 421.555 192.939 421.188 192.939 420.816 192.939 420.517 193.034 420.517 193.15L420.517 193.615 419.243 193.381C418.924 193.322 418.515 193.357 418.328 193.458 418.143 193.562 418.251 193.692 418.572 193.749Z" fill="#28B5E8" fill-rule="evenodd" fill-opacity="1"/><path d="M423.603 194.561 422.657 194.264C422.631 194.255 422.576 194.248 422.539 194.248L422.47 194.248 422.332 194.248 422.261 194.248C422.224 194.248 422.169 194.255 422.143 194.264L421.197 194.561C421.17 194.569 421.148 194.587 421.148 194.598L421.148 194.62 421.148 194.664 421.148 194.686C421.148 194.697 421.17 194.715 421.197 194.723L422.143 195.02C422.169 195.029 422.224 195.036 422.261 195.036L422.332 195.036 422.47 195.036 422.539 195.036C422.578 195.036 422.631 195.029 422.657 195.02L423.603 194.723C423.63 194.715 423.652 194.699 423.652 194.686L423.652 194.664 423.652 194.62 423.652 194.598C423.652 194.585 423.63 194.569 423.603 194.561ZM422.847 194.644C422.847 194.655 422.825 194.673 422.796 194.682L422.523 194.767C422.497 194.776 422.444 194.783 422.404 194.783L422.393 194.783C422.356 194.783 422.303 194.776 422.275 194.767L422.002 194.682C421.975 194.673 421.953 194.655 421.953 194.644L421.953 194.64C421.953 194.629 421.975 194.611 422.002 194.602L422.275 194.517C422.301 194.508 422.354 194.501 422.393 194.501L422.404 194.501C422.442 194.501 422.497 194.508 422.523 194.517L422.796 194.602C422.822 194.611 422.847 194.629 422.847 194.64L422.847 194.644Z" fill="#28B5E8" fill-rule="evenodd" fill-opacity="1"/><path d="M426.228 195.533 423.953 195.119C423.83 195.097 423.696 195.089 423.566 195.091 423.218 195.1 422.946 195.19 422.946 195.302L422.946 196.131C422.946 196.248 423.245 196.343 423.614 196.343 423.984 196.343 424.285 196.248 424.285 196.131L424.285 195.667 425.559 195.898C425.878 195.958 426.287 195.922 426.472 195.821 426.657 195.722 426.549 195.592 426.228 195.533Z" fill="#28B5E8" fill-rule="evenodd" fill-opacity="1"/><path d="M427.429 194.411 426.16 194.642 427.429 194.873C427.75 194.932 427.86 195.06 427.673 195.161 427.489 195.262 427.079 195.298 426.758 195.238L424.483 194.825C424.332 194.796 424.226 194.752 424.18 194.704 424.158 194.682 424.147 194.657 424.149 194.635 424.151 194.618 424.158 194.602 424.173 194.585 424.219 194.534 424.325 194.488 424.483 194.457L426.758 194.044C427.077 193.984 427.486 194.019 427.673 194.121 427.86 194.222 427.75 194.352 427.429 194.411Z" fill="#28B5E8" fill-rule="evenodd" fill-opacity="1"/></g></g></g></g></g></svg>